<?xml version="1.0" encoding="UTF-8"?>
<svg id="Capa_2" data-name="Capa 2" xmlns="http://www.w3.org/2000/svg" viewBox="0 0 240.65 261.88">
  <defs>
    <style>
      .cls-1 {
        fill: #fff;
      }
    </style>
  </defs>
  <g id="Capa_1-2" data-name="Capa 1">
    <path class="cls-1" d="M58.42,108.29l1.88,1.88v131.3c-1.91-1.22-3.79-2.48-5.64-3.8V104.53l1.88,1.88V22.86c.62-.43,1.25-.84,1.88-1.25v86.68h0ZM21.98,57.56c-.65.95-1.26,1.93-1.88,2.91v9.5l-1.88-1.88v130.36c1.76,2.92,3.66,5.75,5.64,8.51V73.73l-1.88-1.88v-14.29h0ZM76.65,11.57c-.63.28-1.26.56-1.88.85v112.21l-1.88-1.88v125.8c1.85.91,3.74,1.77,5.64,2.6v-122.76l-1.88-1.88V11.57h0ZM94.87,4.92c-.63.18-1.26.35-1.88.53v137.4l-1.88-1.88v114.88c1.86.59,3.74,1.12,5.64,1.63v-110.87l-1.88-1.88V4.92h0ZM0,142.83c.87,9.64,2.78,18.98,5.64,27.9v-79.6c-2.85,8.92-4.77,18.26-5.64,27.9v23.8h0ZM222.43,95.44v-57.53c-.62-.61-1.25-1.2-1.88-1.79v61.2l1.88-1.88ZM240.65,77.22v-16.76c-.62-.97-1.23-1.95-1.88-2.91v21.54l1.88-1.88h0ZM204.21,116.56V22.86c-.62-.43-1.25-.84-1.88-1.25v99.85c.48-1.67,1.13-3.3,1.88-4.89h0ZM40.2,36.12c-.63.6-1.26,1.18-1.88,1.79v50.27l-1.88-1.88v135.72c1.83,1.89,3.7,3.73,5.64,5.51V91.94l-1.88-1.88v-53.94ZM202.33,140.39v99.87c.63-.41,1.26-.83,1.88-1.25v-93.72c-.75-1.59-1.39-3.22-1.88-4.89h0ZM220.55,164.52v61.22c.63-.6,1.26-1.18,1.88-1.79v-57.55l-1.88-1.88ZM185.98,12.42c-.62-.29-1.25-.57-1.88-.85v222.4l-1.88-1.88v19.06c1.9-.82,3.78-1.69,5.64-2.6v-10.82l-1.88-1.88V12.42h0ZM238.77,182.75v21.56c.65-.95,1.26-1.93,1.88-2.91v-16.78l-1.88-1.88h0ZM149.54,1.41c-.62-.09-1.25-.16-1.88-.24v196.36l-1.88-1.88v65.3c1.89-.22,3.77-.47,5.64-.78v-58.88l-1.88-1.88V1.42h0ZM167.76,5.46c-.62-.19-1.25-.36-1.88-.53v210.82l-1.88-1.88v43.61c1.89-.5,3.78-1.04,5.64-1.63v-36.35l-1.88-1.88V5.45h0ZM131.31.02c-.31,0-.62-.02-.94-.02s-.63.02-.94.02v179.28l-1.88-1.88v84.39c.94.02,1.87.07,2.82.07s1.88-.05,2.82-.07v-78.75l-1.88-1.88V.02h0ZM113.09,1.17c-.63.08-1.26.15-1.88.24v159.67l-1.88-1.88v100.97c1.87.3,3.75.55,5.64.78v-96.1l-1.88-1.88V1.18h0Z"/>
  </g>
</svg>