<?xml version="1.0" encoding="UTF-8"?>
<svg id="Capa_2" data-name="Capa 2" xmlns="http://www.w3.org/2000/svg" viewBox="0 0 586.01 261.82">
  <defs>
    <style>
      .cls-1 {
        fill: #fff;
      }
    </style>
  </defs>
  <g id="Capa_1-2" data-name="Capa 1">
    <path class="cls-1" d="M230.19,22.06H38.47c.96-.65,1.95-1.26,2.93-1.88h190.67l1.88-1.88h287.83c2.97,1.76,5.85,3.65,8.66,5.64H228.31l1.88-1.88h0ZM248.6,258.06H79.92c2.98.73,6.01,1.36,9.07,1.88h161.49l1.88,1.88h204.08c12.76-.13,25.09-2.09,36.73-5.64h-246.45l1.88,1.88ZM210.01,42.24h341.29c-1.79-1.94-3.64-3.81-5.54-5.64H215.65l-1.88,1.88H18.5c-.61.61-1.19,1.25-1.79,1.88h195.18l-1.88,1.88h0ZM246.6,5.64h246.55c-11.69-3.56-24.06-5.52-36.86-5.64h-204.05l-1.88,1.88H89.01c-3.06.52-6.09,1.15-9.08,1.88h168.55l-1.88,1.88h0ZM140.57,111.67H35.81c.43.61.82,1.24,1.2,1.88h101.69l-1.88,1.88h448.24c-.22-1.89-.48-3.77-.78-5.64H142.45l-1.88,1.88ZM177.17,75.08H.02l1.88,1.88h173.39l-1.88,1.88h401.76c-.83-1.9-1.7-3.78-2.61-5.64H179.05l-1.88,1.88h0ZM158.87,93.38H18.32l1.88,1.88h136.79l-1.88,1.88h426.45c-.51-1.89-1.04-3.78-1.63-5.64H160.75l-1.88,1.88h0ZM191.71,60.54h373.69c-1.22-1.91-2.5-3.79-3.82-5.64H197.35l-1.88,1.88H3.3c-.43.62-.86,1.25-1.27,1.88h191.57l-1.88,1.88h-.01ZM138.81,148.27H37c-.38.64-.77,1.26-1.2,1.88h104.89l1.88,1.88h441.71c.3-1.87.56-3.75.78-5.64H136.93l1.88,1.88ZM585.93,128.09H124.15l-1.88,1.88H41.78c.02.63.02,1.25,0,1.88h80.61l1.88,1.88h461.67c.02-.94.07-1.87.07-2.82s-.05-1.88-.07-2.82h-.01ZM157.1,166.57H20.18l-1.88,1.88h140.68l1.88,1.88h419.07c.59-1.86,1.13-3.74,1.63-5.64H155.22l1.88,1.88h0ZM230.3,239.77H38.46c.96.65,1.95,1.26,2.93,1.88h190.79l1.88,1.88h287.72c2.97-1.76,5.85-3.65,8.66-5.64H228.42l1.88,1.88h0ZM212,221.47H16.7c.6.62,1.18,1.27,1.79,1.88h195.39l1.88,1.88h330c1.9-1.83,3.76-3.7,5.54-5.64H210.12l1.88,1.88ZM193.7,203.17H2.02c.42.63.84,1.26,1.27,1.88h192.29l1.88,1.88h364.12c1.32-1.84,2.59-3.72,3.82-5.64H191.82l1.88,1.88ZM175.4,184.87H1.88l-1.88,1.88h177.28l1.88,1.88h393.4c.91-1.86,1.78-3.73,2.61-5.64H173.52l1.88,1.88h0Z"/>
  </g>
</svg>