<?xml version="1.0" encoding="UTF-8"?>
<svg id="Capa_2" data-name="Capa 2" xmlns="http://www.w3.org/2000/svg" viewBox="0 0 288.05 288.05">
  <defs>
    <style>
      .cls-1 {
        fill: #fff;
      }
    </style>
  </defs>
  <g id="Capa_1-2" data-name="Capa 1">
    <path class="cls-1" d="M57.36,207.26l-1.33-1.33,57.01-57.01h-2.66l94.21-94.21,3.99,3.99-90.23,90.23h-2.66l-58.34,58.34h.01ZM91.37,148.92h2.66l102.39-102.39-3.99-3.99-106.38,106.38h2.66l-44.85,44.85,1.33,1.33,46.17-46.17h.01ZM67.04,148.92h2.66l114.55-114.55-3.99-3.99-118.54,118.54h2.66l-32.68,32.68,1.33,1.33,34.01-34.01h0ZM42.72,148.92h2.66L172.1,22.2l-3.99-3.99L37.41,148.91h2.66l-20.52,20.52,1.33,1.33,21.85-21.85h-.01ZM144.02,0c-3.79,0-7.34,1.47-10.02,4.15L4.15,134.01c-2.68,2.68-4.15,6.24-4.15,10.02,0,.51.03,1.02.09,1.53L145.56.09c-.5-.05-1.01-.09-1.53-.09h-.01ZM8.7,158.61l9.68-9.68h2.66L159.92,10.05l-3.99-3.99L13.06,148.93h2.66l-8.36,8.36,1.33,1.33h0ZM140.02,148.92h2.66l78.06-78.06-3.99-3.99-82.05,82.05h2.66l-69.17,69.17,1.33,1.33,70.5-70.5h0ZM261.66,148.92h2.66l17.25-17.25-3.99-3.99-21.23,21.23h2.66l-129.99,129.99,1.33,1.33,131.32-131.32h-.01ZM237.33,148.92h2.66l29.41-29.41-3.99-3.99-33.4,33.4h2.66l-117.83,117.83,1.33,1.33,119.16-119.16ZM164.35,148.92h2.66l65.9-65.9-3.99-3.99-69.89,69.89h2.66l-81.34,81.34,1.33,1.33,82.67-82.67h0ZM285.99,148.92h1.18c.57-1.55.88-3.19.88-4.89,0-.77-.08-1.54-.2-2.28l-7.18,7.18h2.66l-139.12,139.12c1.03-.01,2.04-.14,3.03-.37l138.75-138.75h0ZM213,148.92h2.66l41.57-41.57-3.99-3.99-45.56,45.56h2.66l-105.66,105.66,1.33,1.33,106.99-106.99ZM188.68,148.92h2.66l53.74-53.74-3.99-3.99-57.72,57.72h2.66l-93.5,93.5,1.33,1.33,94.83-94.83h-.01Z"/>
  </g>
</svg>