<?xml version="1.0" encoding="UTF-8"?>
<svg id="Capa_2" data-name="Capa 2" xmlns="http://www.w3.org/2000/svg" viewBox="0 0 288 288">
  <defs>
    <style>
      .cls-1 {
        fill: #e83b4c;
      }
    </style>
  </defs>
  <g id="Capa_1-2" data-name="Capa 1">
    <path class="cls-1" d="M57.3,207.2l-1.3-1.3,57-57h-2.7l94.2-94.2,4,4-90.2,90.2h-2.7l-58.3,58.3h0ZM91.3,148.9h2.7l102.4-102.4-4-4-106.4,106.4h2.7l-44.8,44.8,1.3,1.3,46.2-46.2h0l-.1.1ZM67,148.9h2.7l114.5-114.5-4-4-118.5,118.5h2.7l-32.7,32.7,1.3,1.3,34-34h0ZM42.6,148.9h2.7L172,22.2l-4-4L37.3,148.9h2.7l-20.5,20.5,1.3,1.3,21.9-21.9h0l-.1.1ZM143.9,0c-3.8,0-7.3,1.5-10,4.1L4.1,133.9c-2.7,2.7-4.1,6.2-4.1,10s0,1,0,1.5L145.4,0h-1.5,0ZM8.6,158.6l9.7-9.7h2.7L159.9,10l-4-4L13,148.9h2.7l-8.4,8.4,1.3,1.3h0ZM139.9,148.9h2.7l78-78.1-4-4-82,82h2.7l-69.2,69.2,1.3,1.3,70.5-70.5h0v.1ZM261.5,148.9h2.7l17.2-17.2-4-4-21.2,21.2h2.7l-130,130,1.3,1.3,131.3-131.3h0ZM237.2,148.9h2.7l29.4-29.4-4-4-33.4,33.4h2.7l-117.8,117.8,1.3,1.3,119.1-119.1h0ZM164.2,148.9h2.7l65.9-65.9-4-4-69.9,69.9h2.7l-81.3,81.3,1.3,1.3,82.6-82.6h0ZM285.9,148.9h1.2c.6-1.5.9-3.2.9-4.9s0-1.5-.2-2.3l-7.2,7.2h2.7l-139.1,139.1c1,0,2-.1,3-.4l138.7-138.7h0ZM212.9,148.9h2.7l41.6-41.6-4-4-45.5,45.6h2.7l-105.6,105.6,1.3,1.3,107-107h0l-.2.1ZM188.6,148.9h2.7l53.7-53.7-4-4-57.7,57.7h2.7l-93.5,93.5,1.3,1.3,94.8-94.8h0Z"/>
  </g>
</svg>