<?xml version="1.0" encoding="UTF-8"?>
<svg id="Capa_2" data-name="Capa 2" xmlns="http://www.w3.org/2000/svg" viewBox="0 0 585.91 261.79">
  <defs>
    <style>
      .cls-1 {
        fill: #85af9a;
      }
    </style>
  </defs>
  <g id="Capa_1-2" data-name="Capa 1">
    <path class="cls-1" d="M230.14,22.06H38.45c.96-.64,1.95-1.26,2.93-1.88h190.64l1.88-1.88h287.79c2.97,1.76,5.85,3.65,8.66,5.64H228.26l1.88-1.88h0ZM248.55,258.03H79.89c2.98.73,6.01,1.36,9.07,1.88h161.47l1.88,1.88h204.05c12.76-.13,25.08-2.09,36.73-5.64h-246.42l1.88,1.88ZM209.97,42.23h341.24c-1.79-1.94-3.64-3.81-5.54-5.64H215.61l-1.88,1.88H18.49c-.61.61-1.19,1.25-1.79,1.88h195.15l-1.88,1.88h0ZM246.56,5.64h246.52c-11.68-3.56-24.05-5.52-36.86-5.64h-204.02l-1.88,1.88H88.99c-3.06.52-6.09,1.15-9.07,1.88h168.53l-1.88,1.88h-.01ZM140.54,111.66H35.79c.43.61.82,1.24,1.2,1.88h101.68l-1.88,1.88h448.18c-.22-1.89-.48-3.77-.78-5.64H142.42l-1.88,1.88h0ZM177.13,75.07H.01l1.88,1.88h173.36l-1.88,1.88h401.71c-.83-1.9-1.7-3.78-2.61-5.64H179.01l-1.88,1.88h0ZM158.84,93.36H18.31l1.88,1.88h136.77l-1.88,1.88h426.39c-.51-1.89-1.04-3.78-1.63-5.64H160.72l-1.88,1.88h0ZM191.67,60.53h373.64c-1.22-1.91-2.5-3.79-3.82-5.64H197.31l-1.88,1.88H3.29c-.43.62-.86,1.25-1.27,1.88h191.54l-1.88,1.88h-.01ZM138.77,148.25H36.97c-.38.64-.77,1.26-1.2,1.88h104.88l1.88,1.88h441.65c.3-1.87.56-3.75.78-5.64H136.89l1.88,1.88ZM585.84,128.08H124.12l-1.88,1.88H41.76c.02.63.02,1.25,0,1.88h80.6l1.88,1.88h461.6c.02-.94.07-1.87.07-2.82s-.05-1.88-.07-2.82ZM157.07,166.55H20.17l-1.88,1.88h140.66l1.88,1.88h419.01c.59-1.86,1.13-3.74,1.63-5.64H155.19l1.88,1.88ZM230.25,239.73H38.44c.96.64,1.95,1.26,2.93,1.88h190.76l1.88,1.88h287.68c2.97-1.76,5.85-3.65,8.66-5.64H228.37l1.88,1.88h0ZM211.96,221.44H16.69c.6.62,1.18,1.27,1.79,1.88h195.36l1.88,1.88h329.95c1.9-1.83,3.76-3.7,5.54-5.64H210.08l1.88,1.88ZM193.66,203.14H2c.42.63.84,1.26,1.27,1.88h192.26l1.88,1.88h364.07c1.32-1.84,2.59-3.72,3.82-5.64H191.78l1.88,1.88h0ZM175.37,184.84H1.88l-1.88,1.88h177.25l1.88,1.88h393.35c.91-1.86,1.78-3.73,2.61-5.64H173.49l1.88,1.88h0Z"/>
  </g>
</svg>