<svg xmlns="http://www.w3.org/2000/svg" viewBox="0 0 645.67 657.49"><defs><style>.cls-1{fill:#fff;}</style></defs><g id="Layer_2" data-name="Layer 2"><g id="Layer_1-2" data-name="Layer 1"><path class="cls-1" d="M307.5.26c-54,3.5-110.7,22.9-155.5,53.2A319,319,0,0,0,42.9,179.06c-13.3,27.6-21.6,53.6-27.3,85.6-4.3,24-5.2,60.2-2.2,88,4,37.4,17.7,82.2,36.2,118.8l5.3,10.3-12.3,36.7c-6.8,20.2-19.1,57-27.4,81.8S0,646.16,0,647.16s1.3,2.2,2.9,2.8c2.6,1,2.9,1.4,2.4,4.5s-.5,3.4,1.8,2.7c4.1-1.3,93.6-29.8,131.4-42,19.8-6.3,36.8-11.5,37.8-11.5s5.2,1.7,9.5,3.9a323.9,323.9,0,0,0,117.1,33.2c16.4,1.4,49.8.7,65.9-1.6,95.4-13.2,176.6-65.9,226.6-146.8,16.3-26.4,31.8-63.2,40.1-95.2,7.9-30.7,11.7-68.8,9.6-98.2-5.4-78.1-35.6-147.3-88.1-201.7C506.1,44.56,441.3,12,367.5,2.06,356.7.66,319.3-.54,307.5.26Zm39.1,68.4c35.7,2.9,65,10.8,95.9,25.9a261,261,0,0,1,103,90.6,230.06,230.06,0,0,1,37.1,97.9c2.3,16.8,2.3,50.8,0,68C566.3,472,466.5,565.16,345.4,572.76c-42.7,2.6-82.4-4.4-121.2-21.4-10.7-4.7-28.4-14.3-33.9-18.3-1.7-1.3-3.9-2.4-4.9-2.4s-22.2,6.5-47.2,14.5-45.6,14.5-45.7,14.3,6.2-19.7,14.1-43.3S121,472,121,470.36s-1.8-5.3-4.4-9c-41.8-59.9-55.4-142.6-35.1-212.7a205.76,205.76,0,0,1,15.5-39,262.44,262.44,0,0,1,88-98.2C232.3,79.86,291.4,64.26,346.6,68.66Z"/><path class="cls-1" d="M214.3,161.06a42.78,42.78,0,0,0-7.5,3.4c-5.1,3.2-19.9,19-24.5,26.2-14.7,22.9-18,53.4-9.2,83.2,6.7,22.5,14.9,39.7,29.9,62.9,19,29.2,31.3,45,51,65.3,29.6,30.5,54.5,47.6,92.7,63.5,28.2,11.8,49,18.5,60.7,19.7,8.1.8,25.8-2,36.2-5.8,14.4-5.2,30.9-16.8,37.3-26.2,6.4-9.6,13-31.3,13.8-45.7l.6-9.5-3.1-3.6c-2.2-2.4-11.2-7.8-29.4-17.6-43.2-23.2-48.7-25.4-55.5-21.8-1.7.8-8.1,7.3-14.1,14.3-17.8,20.7-21.5,24.3-24.5,24.3-3.8,0-28.7-12.7-40.3-20.5a192.76,192.76,0,0,1-33.4-28.1c-13.2-13.7-27.5-33.3-35.5-48.6l-1.8-3.6,7.2-7.9c9.5-10.1,13.4-16.2,17.2-26.8,3.9-10.8,3.7-14.1-2-29-5.1-13.3-9.2-24.3-16.3-43.4-5.8-15.7-10.1-22.1-16.1-24C242,160.06,219,159.56,214.3,161.06Z"/></g></g></svg>