<?xml version="1.0" encoding="UTF-8"?>
<svg id="Capa_2" data-name="Capa 2" xmlns="http://www.w3.org/2000/svg" viewBox="0 0 889.02 304.65">
  <defs>
    <style>
      .cls-1 {
        fill: #c83e4d;
      }
    </style>
  </defs>
  <g id="Capa_2-2" data-name="Capa 2">
    <path class="cls-1" d="M43.4,271.1c13.41-.32,29.84-1.74,29.27,16.23.15,18.05-16,17.12-29.27,16.66v-32.89ZM48.44,275.32v24.45c10.09.56,19.68.02,19.24-12.44.59-12.37-9.55-12.44-19.24-12Z"/>
    <path class="cls-1" d="M106.49,294.77h-14.85l-3.34,9.21h-5.26l12.77-32.89h6.69l12.72,32.89h-5.37l-3.34-9.21ZM93,290.94h12.06c-1.79-4.87-3.91-10.66-5.32-15.4h-1.37c-1.48,4.8-3.57,10.51-5.37,15.4Z"/>
    <path class="cls-1" d="M122,271.1h26.31v4.61h-10.63v28.28h-5.04v-28.28h-10.63v-4.61Z"/>
    <path class="cls-1" d="M178.56,294.77h-14.85l-3.34,9.21h-5.26l12.77-32.89h6.69l12.72,32.89h-5.37l-3.34-9.21ZM165.08,290.94h12.06c-1.79-4.87-3.91-10.66-5.32-15.4h-1.37c-1.48,4.8-3.57,10.51-5.37,15.4Z"/>
    <path class="cls-1" d="M221.47,287.48c-1.69-19.8,27.95-23.67,30.47-4.66l-4.77.93c-2.3-14.14-22.18-10.39-20.66,3.73-1.56,14.82,18.82,17.82,20.83,3.62l4.77.88c-2.32,19.16-32.5,15.72-30.64-4.49Z"/>
    <path class="cls-1" d="M268.5,271.1h22.86v4.44h-17.81v9.54h16v4.39h-16v10.08h17.76v4.44h-22.8v-32.89Z"/>
    <path class="cls-1" d="M320.02,287.65c-2.03-3.51-4.33-8.28-5.97-12l-1.15.06c.64,8.42.56,19.78.55,28.28h-4.71v-32.89h7.29c4.34,7.26,12.39,20.26,15.18,27.57h1.04c-.6-8.14-.58-19.31-.55-27.57h4.71v32.89h-6.69l-9.7-16.33Z"/>
    <path class="cls-1" d="M351.86,271.1h26.31v4.61h-10.63v28.28h-5.04v-28.28h-10.63v-4.61Z"/>
    <path class="cls-1" d="M393.63,271.1h22.86v4.44h-17.81v9.54h16v4.39h-16v10.08h17.76v4.44h-22.8v-32.89Z"/>
    <path class="cls-1" d="M445.92,290.94h-7.02v13.04h-5.04v-32.89h13.26c14.2-1.4,15.7,16.93,3.84,19.4l9.81,12.88v.6h-5.81l-9.04-13.04ZM438.9,275.37v11.24c4.91-.15,15.52,1.52,14.96-5.76,1.04-6.96-10.18-5.34-14.96-5.48Z"/>
    <path class="cls-1" d="M498.59,271.1h22.86v4.44h-17.81v9.54h16v4.39h-16v10.08h17.76v4.44h-22.8v-32.89Z"/>
    <path class="cls-1" d="M538.82,271.1c13.41-.32,29.84-1.74,29.27,16.23.15,18.05-16,17.12-29.27,16.66v-32.89ZM543.86,275.32v24.45c10.09.56,19.68.02,19.24-12.44.59-12.37-9.55-12.44-19.24-12Z"/>
    <path class="cls-1" d="M605.96,291.27v-20.17h5.04c-.98,11.33,5.15,34.44-13.32,33.49-19.05.85-12.84-21.72-13.81-33.49h5.04v19.9c-1.6,11.8,18.52,12.6,17.04.27Z"/>
    <path class="cls-1" d="M627.39,287.48c-1.69-19.8,27.95-23.67,30.47-4.66l-4.77.93c-2.3-14.14-22.18-10.39-20.66,3.73-1.56,14.82,18.82,17.82,20.83,3.62l4.77.88c-2.32,19.16-32.5,15.72-30.64-4.49Z"/>
    <path class="cls-1" d="M691.9,294.77h-14.85l-3.34,9.21h-5.26l12.77-32.89h6.69l12.72,32.89h-5.37l-3.34-9.21ZM678.41,290.94h12.06c-1.79-4.87-3.91-10.66-5.32-15.4h-1.37c-1.48,4.8-3.57,10.51-5.37,15.4Z"/>
    <path class="cls-1" d="M707.41,271.1h26.31v4.61h-10.63v28.28h-5.04v-28.28h-10.63v-4.61Z"/>
    <path class="cls-1" d="M749.17,303.98v-32.89h5.04v32.89h-5.04Z"/>
    <path class="cls-1" d="M770.6,287.48c-1.23-22.64,33.83-22.63,32.55,0,1.32,22.77-33.91,22.76-32.55,0ZM798.17,287.43c1.23-16.69-23.82-16.7-22.58,0-1.33,17.04,23.87,17.11,22.58,0Z"/>
    <path class="cls-1" d="M830.84,287.65c-2.03-3.51-4.33-8.28-5.97-12l-1.15.06c.64,8.42.56,19.78.55,28.28h-4.71v-32.89h7.29c4.34,7.26,12.39,20.26,15.18,27.57h1.04c-.6-8.14-.58-19.31-.55-27.57h4.71v32.89h-6.69l-9.7-16.33Z"/>
    <path class="cls-1" d="M180.83,120.77c-1.74-7.65,28.7-32,32.49-37.41C174.96-30.38-1.41-1.71,0,120.11c-1.44,121.23,173.79,150.55,212.97,37.72-3.93-5.57-33.76-29.27-32.15-37.07ZM160.35,164.52h-11.87c-.02-21.26-.1-58.22.51-79h-3.39c-6.37,20.5-21.1,53.28-30.18,73.57h-12.71c-8.7-19.91-23.22-54.04-29.16-73.57h-3.05c.33,20.24.1,58.07.17,79h-11.36v-88.83h20.34c8.33,19.47,21.73,50.37,28.65,71.2h3.73c6.15-20.54,20.46-52.09,28.82-71.2h19.5v88.83Z"/>
    <path class="cls-1" d="M418.93,112.36S310.03,3.46,310.03,3.46c-4.42-4.6-12.39-4.62-16.81,0,0,0-108.91,108.91-108.91,108.91-2.25,2.24-3.48,5.23-3.48,8.41s1.24,6.16,3.48,8.4c0,0,108.91,108.91,108.91,108.91,4.42,4.6,12.39,4.62,16.81,0,0,0,108.91-108.91,108.91-108.91,4.61-4.42,4.62-12.39,0-16.81ZM302.38,164.59c-59.1,3.95-58.19-96.51.51-92.22,23.56,0,37.97,12.71,41.53,33.06l-11.36,2.37c-6.8-39.47-67.37-29.5-62.89,10.51-4.46,41.48,57.39,49.85,63.4,10.17l11.36,2.03c-3.39,21.02-17.63,34.08-42.55,34.08Z"/>
    <path class="cls-1" d="M629.14,141.87c.05,22.22,48.47,15.91,43.4-13.39-11.93,1.21-44.96-5.66-43.4,13.39Z"/>
    <path class="cls-1" d="M780.79,10.29h-288.44c-47.38,0-87.85,30.16-103.21,72.29,43.49,43.85,44.34,32.08.36,76.03,15.63,41.62,55.83,71.33,102.85,71.33,0,0,288.44,0,288.44,0,144.27-2.55,144.35-217.08,0-219.64ZM512.48,164.59c-25.94,0-37.47-12.04-40.18-29.84l11.36-2.37c2.71,14.41,11.53,22.21,29.16,22.21,16.27,0,23.05-5.76,23.05-14.75-.4-24.81-61.36-9.45-59.33-43.23-.86-33.81,67.01-31.78,68.82,2.04l-11.7,2.37c-3.22-12.37-8.65-18.82-24.07-18.82-14.41,0-21.36,5.08-21.36,13.73,0,7.97,4.75,13.22,26.11,16.95,48.39,5.92,43.02,52.83-1.86,51.71ZM591.48,164.76c-34.18,1.42-20.12-50.66-22.89-70.69h-12.88v-10h12.88v-22.72h11.53v22.72h26.78v10h-26.78s0,44.92,0,44.92c-1.13,16.4,14.19,16.82,25.94,12.88l1.69,10.34c-5.42,1.53-9.66,2.54-16.27,2.54ZM684.06,162.89h-11.02v-18.82h-1.36c-5,26.21-55.11,29.09-53.91-1.19-.69-27.56,34.1-23.01,54.76-23.06v-7.29c2.66-26.48-36.97-27.33-40.52-2.88l-11.19-2.88c3.56-15.43,14.92-24.41,32.55-24.41,44.26-2.43,27.67,54.08,30.68,80.52ZM739.1,95.93c-41.31-3.67-26.26,40.75-28.99,66.96h-11.7v-78.83h11.36v21.19h1.02c4.13-16.92,14.21-22.89,28.31-22.04v12.71ZM784.57,164.76c-34.18,1.42-20.12-50.66-22.89-70.69h-12.88v-10h12.88v-22.72h11.53v22.72h26.78v10h-26.78v44.92c-1.13,16.4,14.19,16.82,25.94,12.88l1.69,10.34c-5.42,1.53-9.66,2.54-16.27,2.54Z"/>
  </g>
</svg>