<?xml version="1.0" encoding="UTF-8"?>
<svg id="Capa_2" data-name="Capa 2" xmlns="http://www.w3.org/2000/svg" xmlns:xlink="http://www.w3.org/1999/xlink" viewBox="0 0 288.06 1061.33">
  <defs>
    <style>
      .cls-1 {
        fill: url(#Degradado_sin_nombre);
        opacity: .1;
      }
    </style>
    <linearGradient id="Degradado_sin_nombre" data-name="Degradado sin nombre" x1="-386.63" y1="532.67" x2="674.69" y2="532.67" gradientTransform="translate(-388.64 386.63) rotate(90) scale(1 -1)" gradientUnits="userSpaceOnUse">
      <stop offset="0" stop-color="#e83b4c"/>
      <stop offset=".05" stop-color="#de3d51"/>
      <stop offset=".12" stop-color="#c5435e"/>
      <stop offset=".22" stop-color="#9c4d74"/>
      <stop offset=".34" stop-color="#635b93"/>
      <stop offset=".46" stop-color="#1b6dba"/>
      <stop offset=".51" stop-color="#0074c9"/>
      <stop offset=".57" stop-color="#187fc0"/>
      <stop offset=".71" stop-color="#4793af"/>
      <stop offset=".83" stop-color="#68a2a3"/>
      <stop offset=".93" stop-color="#7dab9c"/>
      <stop offset="1" stop-color="#85af9a"/>
    </linearGradient>
  </defs>
  <g id="Capa_1-2" data-name="Capa 1">
    <path class="cls-1" d="M167.46,58.42l-1.88,1.88H34.28c1.22-1.91,2.48-3.79,3.8-5.64h133.14l-1.88,1.88h83.55c.43.62.84,1.25,1.25,1.88,0,0-86.68,0-86.68,0ZM218.19,21.98c-.95-.65-1.93-1.26-2.91-1.88h-9.5l1.88-1.88H77.3c-2.92,1.76-5.75,3.66-8.51,5.64h133.23l1.88-1.88s14.29,0,14.29,0ZM264.18,76.65c-.28-.63-.56-1.26-.85-1.88h-112.21l1.88-1.88H27.2c-.91,1.85-1.77,3.74-2.6,5.64h122.76l1.88-1.88s114.94,0,114.94,0ZM270.82,94.87c-.18-.63-.35-1.26-.53-1.88h-137.4l1.88-1.88H19.89c-.59,1.86-1.12,3.74-1.63,5.64h110.87l1.88-1.88h139.81ZM132.91,0c-9.64.87-18.98,2.78-27.9,5.64h79.6c-8.92-2.85-18.26-4.77-27.9-5.64h-23.8ZM180.3,222.43h57.53c.61-.62,1.2-1.25,1.79-1.88h-61.2l1.88,1.88ZM198.53,240.65h16.76c.97-.62,1.95-1.23,2.91-1.88h-21.54l1.88,1.88h-.01ZM159.19,204.21h93.7c.43-.62.84-1.25,1.25-1.88h-99.85c1.67.48,3.3,1.13,4.89,1.88h0ZM239.62,40.2c-.6-.63-1.18-1.26-1.79-1.88h-50.27l1.88-1.88H53.72c-1.89,1.83-3.73,3.7-5.51,5.64h135.59l1.88-1.88h53.94ZM135.36,202.33H35.49c.41.63.83,1.26,1.25,1.88h93.72c1.59-.75,3.22-1.39,4.89-1.88h0ZM111.22,220.55h-61.22c.6.63,1.18,1.26,1.79,1.88h57.55l1.88-1.88ZM263.33,185.98c.29-.62.57-1.25.85-1.88H41.78l1.88-1.88h-19.06c.82,1.9,1.69,3.78,2.6,5.64h10.82l1.88-1.88h223.43,0ZM93,238.77h-21.56c.95.65,1.93,1.26,2.91,1.88h16.78l1.88-1.88h-.01ZM274.34,149.54c.09-.62.16-1.25.24-1.88H78.22l1.88-1.88H14.8c.22,1.89.47,3.77.78,5.64h58.88l1.88-1.88h198ZM270.29,167.76c.19-.62.36-1.25.53-1.88H60l1.88-1.88H18.27c.5,1.89,1.04,3.78,1.63,5.64h36.35l1.88-1.88h212.17-.01ZM275.73,131.31c0-.31.02-.62.02-.94s-.02-.63-.02-.94H96.45l1.88-1.88H13.94c-.02.94-.07,1.87-.07,2.82s.05,1.88.07,2.82h78.75l1.88-1.88h181.16ZM274.58,113.09c-.08-.63-.15-1.26-.24-1.88H114.67l1.88-1.88H15.58c-.3,1.87-.55,3.75-.78,5.64h96.1l1.88-1.88h161.8ZM80.8,272.39l1.33-1.33,57.01,57.01v-2.66l94.21,94.21-3.99,3.99-90.23-90.23v-2.66l-58.34-58.34h.01ZM139.13,306.4v2.66l102.39,102.39,3.99-3.99-106.38-106.38v2.66l-44.85-44.85-1.33,1.33,46.17,46.17h0ZM139.13,282.07v2.66l114.55,114.55,3.99-3.99-118.54-118.54v2.66l-32.68-32.68-1.33,1.33,34.01,34.01h0ZM139.13,257.75v2.66l126.72,126.72,3.99-3.99-130.7-130.7v2.66l-20.52-20.52-1.33,1.33,21.85,21.85h-.01ZM288.05,359.05c0-3.79-1.47-7.34-4.15-10.02l-129.85-129.85c-2.68-2.68-6.24-4.15-10.02-4.15-.51,0-1.02.03-1.53.09l145.47,145.47c.05-.5.09-1.01.09-1.53h-.01ZM129.45,223.73l9.68,9.68v2.66l138.88,138.88,3.99-3.99-142.87-142.87v2.66l-8.36-8.36-1.33,1.33h0ZM139.13,355.05v2.66l78.06,78.06,3.99-3.99-82.05-82.05v2.66l-69.17-69.17-1.33,1.33,70.5,70.5h0ZM139.13,476.69v2.66l17.25,17.25,3.99-3.99-21.23-21.23v2.66L9.15,344.05l-1.33,1.33,131.32,131.32h-.01ZM139.13,452.36v2.66l29.41,29.41,3.99-3.99-33.4-33.4v2.66l-117.83-117.83-1.33,1.33,119.16,119.16h0ZM139.13,379.38v2.66l65.9,65.9,3.99-3.99-69.89-69.89v2.66l-81.34-81.34-1.33,1.33,82.67,82.67h0ZM139.13,501.02v1.18c1.55.57,3.19.88,4.89.88.77,0,1.54-.08,2.28-.2l-7.18-7.18v2.66L0,359.24c.01,1.03.14,2.04.37,3.03l138.75,138.75h0ZM139.13,428.03v2.66l41.57,41.57,3.99-3.99-45.56-45.56v2.66l-105.66-105.66-1.33,1.33,106.99,106.99ZM139.13,403.71v2.66l53.74,53.74,3.99-3.99-57.72-57.72v2.66l-93.5-93.5-1.33,1.33,94.83,94.83h-.01ZM253.67,705.51v-191.72c.65.96,1.26,1.95,1.88,2.93v190.67l1.88,1.88v287.83c-1.76,2.97-3.65,5.85-5.64,8.66v-302.13l1.88,1.88h0ZM17.66,723.92v-168.68c-.73,2.98-1.36,6.01-1.88,9.07v161.49l-1.88,1.88v204.08c.13,12.76,2.09,25.09,5.64,36.73v-246.45l-1.88,1.88ZM233.49,685.33v341.29c1.94-1.79,3.81-3.64,5.64-5.54v-330.11l-1.88-1.88v-195.27c-.61-.61-1.25-1.19-1.88-1.79v195.18l-1.88-1.88h0ZM270.09,721.92v246.55c3.56-11.69,5.52-24.06,5.64-36.86v-204.05l-1.88-1.88v-161.35c-.52-3.06-1.15-6.09-1.88-9.08v168.55l-1.88-1.88h0ZM164.05,615.89v-104.76c-.61.43-1.24.82-1.88,1.2v101.69l-1.88-1.88v448.24c1.89-.22,3.77-.48,5.64-.78v-441.83l-1.88-1.88ZM200.65,652.49v-177.15l-1.88,1.88v173.39l-1.88-1.88v401.76c1.9-.83,3.78-1.7,5.64-2.61v-393.51l-1.88-1.88h0ZM182.35,634.19v-140.55l-1.88,1.88v136.79l-1.88-1.88v426.45c1.89-.51,3.78-1.04,5.64-1.63v-419.18l-1.88-1.88h0ZM215.19,667.03v373.69c1.91-1.22,3.79-2.5,5.64-3.82v-364.23l-1.88-1.88v-192.17c-.62-.43-1.25-.86-1.88-1.27v191.57l-1.88-1.88h0ZM127.46,614.13v-101.81c-.64-.38-1.26-.77-1.88-1.2v104.89l-1.88,1.88v441.71c1.87.3,3.75.56,5.64.78v-448.13l-1.88,1.88ZM147.63,1061.25v-461.78l-1.88-1.88v-80.49c-.63.02-1.25.02-1.88,0v80.61l-1.88,1.88v461.67c.94.02,1.87.07,2.82.07s1.88-.05,2.82-.07h0ZM109.16,632.42v-136.92l-1.88-1.88v140.68l-1.88,1.88v419.07c1.86.59,3.74,1.13,5.64,1.63v-426.34l-1.88,1.88h0ZM35.96,705.62v-191.84c-.65.96-1.26,1.95-1.88,2.93v190.79l-1.88,1.88v287.72c1.76,2.97,3.65,5.85,5.64,8.66v-302.02l-1.88,1.88h0ZM54.26,687.32v-195.3c-.62.6-1.27,1.18-1.88,1.79v195.39l-1.88,1.88v330c1.83,1.9,3.7,3.76,5.64,5.54v-341.18l-1.88,1.88ZM72.56,669.02v-191.68c-.63.42-1.26.84-1.88,1.27v192.29l-1.88,1.88v364.12c1.84,1.32,3.72,2.59,5.64,3.82v-373.58l-1.88,1.88ZM90.86,650.72v-173.52l-1.88-1.88v177.28l-1.88,1.88v393.4c1.86.91,3.73,1.78,5.64,2.61v-401.65l-1.88,1.88h0Z"/>
  </g>
</svg>